<svg width="86px" height="30px"  version="1.1" xmlns="http://www.w3.org/2000/svg" xmlns:xlink="http://www.w3.org/1999/xlink" >
    <g id="Sidebar-Menu" stroke="none" stroke-width="1" fill="none" fill-rule="evenodd">
        <g id="Falabella" transform="translate(0.000000, 1.000000)" fill="#BAC8D3" fill-rule="nonzero">
            <g id="Group" transform="translate(0.000000, -0.891938)">
                <g id="Group-3" transform="translate(0.246113, 0.027456)">
                    <path d="M7.68420095,6.31494365 C8.09438961,4.47537311 8.47723237,2.85545278 9.87187382,1.48263894 C10.8289807,0.549125535 12.0868926,-9.41469125e-14 13.4268422,-9.41469125e-14 C13.4268422,-9.41469125e-14 13.9464145,-9.41469125e-14 14.2745655,0.0549125535 L14.1651818,0.741319472 C14.1651818,0.741319472 13.4541881,0.631494365 13.0166536,0.741319472 C12.4423894,0.878600856 12.1142385,1.12570735 11.7040498,1.51009522 C10.9657103,2.25141469 10.7195971,3.10255927 10.2547166,5.10686748 L8.77803739,11.7512864 L12.4697354,11.7512864 L12.2509681,12.6298873 L8.5592701,12.6298873 L6.23486768,22.9534474 C5.82467901,24.7930179 5.44183626,26.4129382 4.04719481,27.7857521 C3.09008793,28.7192655 1.83217603,29.268391 0.464880485,29.268391 L1.49213975e-13,29.268391 L0.246113198,28.4996153 C0.382842752,28.4996153 0.546918217,28.4996153 0.656301861,28.472159 C1.39464145,28.3623339 1.88686785,28.1152274 2.29705651,27.5661019 C2.98070428,26.687501 3.14477975,26.1383755 3.63700614,24.1615235 L6.20752176,12.6573436 L2.59786153,12.6573436 L2.81662882,11.7787427 L6.42628905,11.7787427 L7.68420095,6.31494365 Z" id="Path"></path>
                    <path d="M57.8366015,15.9795531 L52.5861866,15.9795531 C52.9416834,14.6341955 54.0355199,12.4926059 55.9770795,12.4926059 C58.0827147,12.4651496 58.1374065,14.6067392 57.8366015,15.9795531 M56.1685009,11.3943549 C53.4065639,11.3943549 50.9454319,13.2613817 50.3711678,16.1992033 C49.386715,21.1962457 53.078413,22.1297591 54.6371299,22.1297591 C55.9770795,22.1297591 57.0162241,21.6630024 57.8092556,21.0589643 L57.0982619,20.235276 C56.5239977,20.5922076 55.8950418,20.8393141 55.1567022,20.8393141 C52.5861866,20.8393141 52.2306897,18.6428119 52.3674193,17.1052604 L59.7508152,17.1052604 C60.5165007,14.6341955 59.6961234,11.3943549 56.1685009,11.3943549" id="Shape"></path>
                    <path d="M25.9239235,3.8987913 C25.9239235,3.8987913 22.8338356,17.2425418 22.5603765,18.8350059 C22.1501878,21.3060708 23.4354456,21.6630024 24.1190934,21.7728275 C25.3770053,21.9650214 26.1973826,21.7453712 26.1973826,21.7453712 L26.3341122,20.9216829 C26.3341122,20.9216829 25.8692317,21.0864205 25.2949675,20.9765954 C24.5019361,20.8393141 24.3925525,20.3725573 24.5839739,19.0271998 C24.8300871,17.462192 28.0842505,3.87133502 28.0842505,3.87133502 L25.9239235,3.87133502 L25.9239235,3.8987913 Z" id="Path"></path>
                    <path d="M64.2081987,3.8987913 C64.2081987,3.8987913 61.1181108,17.2425418 60.8446517,18.8350059 C60.434463,21.3060708 61.7197208,21.6630024 62.4033686,21.7728275 C63.6612805,21.9650214 64.4816578,21.7453712 64.4816578,21.7453712 L64.6183874,20.9216829 C64.6183874,20.9216829 64.1535069,21.0864205 63.5792427,20.9765954 C62.7862113,20.8393141 62.6768277,20.3725573 62.8682491,19.0271998 C63.1143623,17.462192 66.3685256,3.87133502 66.3685256,3.87133502 L64.2081987,3.87133502 L64.2081987,3.8987913 Z" id="Path"></path>
                    <path d="M68.9390413,3.8987913 C68.9390413,3.8987913 65.8489533,17.2425418 65.5754942,18.8350059 C65.1653056,21.3060708 66.4232175,21.6630024 67.1342112,21.7728275 C68.3921231,21.9650214 69.2125004,21.7453712 69.2125004,21.7453712 L69.3492299,20.9216829 C69.3492299,20.9216829 68.8843494,21.0864205 68.3100853,20.9765954 C67.5170539,20.8393141 67.4076703,20.3725573 67.5990916,19.0271998 C67.8452048,17.462192 71.0993682,3.87133502 71.0993682,3.87133502 L68.9390413,3.87133502 L68.9390413,3.8987913 Z" id="Path"></path>
                    <path d="M18.5405276,17.4347357 C18.2944144,18.258424 17.3099616,21.1687894 14.9855591,21.1687894 C12.2236222,21.1687894 13.5635718,16.967979 13.7823391,16.1442907 C14.0011064,15.3480587 15.0129051,12.3827808 17.2552698,12.3827808 C19.9625149,12.3827808 18.7866408,16.6110474 18.5405276,17.4347357 L18.5405276,17.4347357 Z M19.7710935,11.6689176 L19.5249804,12.7122561 L19.4429426,12.7122561 C18.8960244,11.6689176 17.8842257,11.3668986 16.8450811,11.3668986 C13.7003013,11.3668986 11.8954712,13.9752449 11.3758989,16.4737661 C10.6102134,20.043082 11.7040498,22.1023028 14.6574082,22.1023028 C15.942666,22.1023028 16.9271188,21.7728275 18.1850307,20.6196638 L18.7319489,21.7728275 L19.7710935,21.7728275 L21.9587664,11.6689176 L19.7710935,11.6689176 Z" id="Shape"></path>
                    <path d="M35.1121495,17.4347357 C34.8660363,18.258424 33.8815836,21.1687894 31.5571811,21.1687894 C28.7952441,21.1687894 30.1351938,16.967979 30.3539611,16.1442907 C30.5727283,15.3480587 31.584527,12.3553245 33.7995458,12.3553245 C36.5341369,12.3827808 35.3582627,16.6110474 35.1121495,17.4347357 L35.1121495,17.4347357 Z M36.3427155,11.6689176 L36.0966023,12.7122561 L36.0419105,12.7122561 C35.4949923,11.6689176 34.4831936,11.3668986 33.444049,11.3668986 C30.2992692,11.3668986 28.4944391,13.9752449 27.9748668,16.4737661 C27.2091813,20.043082 28.3030177,22.1023028 31.2563761,22.1023028 C32.5416339,22.1023028 33.5260867,21.7728275 34.7839986,20.6196638 L35.3309168,21.7728275 L36.3700614,21.7728275 L38.5577343,11.6689176 L36.3427155,11.6689176 Z" id="Shape"></path>
                    <path d="M77.9085,17.4347357 C77.6623868,18.258424 76.677934,21.1687894 74.3535316,21.1687894 C71.5915946,21.1687894 72.9315443,16.967979 73.1503115,16.1442907 C73.3690788,15.3480587 74.3535316,12.3553245 76.5958963,12.3553245 C79.3304874,12.3827808 78.1546132,16.6110474 77.9085,17.4347357 L77.9085,17.4347357 Z M79.139066,11.6689176 L78.8929528,12.7122561 L78.838261,12.7122561 C78.2639969,11.6689176 77.2795441,11.3668986 76.2403995,11.3668986 C73.0956197,11.3668986 71.3181355,13.9752449 70.7712173,16.4737661 C70.0055318,20.043082 71.0993682,22.1023028 74.0527266,22.1023028 C75.3379844,22.1023028 76.3224372,21.7728275 77.5803491,20.6196638 L78.1272673,21.7728275 L79.1664119,21.7728275 L81.3540848,11.6689176 L79.139066,11.6689176 Z" id="Shape"></path>
                    <path d="M46.5700862,17.5445608 C46.3513189,18.3682491 45.3668661,21.2786145 43.2885769,21.2786145 C40.800099,21.2786145 41.6204763,17.0778041 41.8392436,16.2541158 C42.1673945,14.9362146 42.9057341,12.5475185 44.9566774,12.5475185 C47.7459604,12.5475185 46.7888535,16.6934163 46.5700862,17.5445608 M45.7770548,11.4492674 C44.5464888,11.4492674 43.261231,11.9983929 42.6049291,12.9319063 L42.5228914,12.9319063 L44.5738347,3.92624758 L42.2767782,3.92624758 C42.2767782,3.92624758 39.0773066,17.8191236 38.2022375,21.8826526 L39.4874953,21.8826526 L40.5266399,20.7294889 C41.2923254,21.8826526 42.1127027,22.2121279 43.4253064,22.2121279 C46.3786648,22.2121279 48.3202245,20.1529071 49.08591,16.5835912 C49.6328282,14.0576137 48.9218345,11.4492674 45.7770548,11.4492674" id="Shape"></path>
                    <path d="M82.4689076,20.3477581 C82.4689076,19.5673122 83.1120603,18.9262315 83.8950287,18.9262315 C84.6779971,18.9262315 85.3211497,19.5673122 85.3211497,20.3477581 C85.3211497,21.1282041 84.6779971,21.7692847 83.8950287,21.7692847 C83.0840971,21.7692847 82.4689076,21.1560772 82.4689076,20.3477581" id="Path"></path>
                </g>
            </g>
        </g>
    </g>
</svg>