<svg width="35px" height="35px" viewBox="0 0 35 35" version="1.1" xmlns="http://www.w3.org/2000/svg" xmlns:xlink="http://www.w3.org/1999/xlink">
    <g id="Ubicación" stroke="none" stroke-width="1" fill="none" fill-rule="evenodd">
        <g id="CCC---Mobile---Ubicacion---paso-4" transform="translate(-144.000000, -34.000000)">
            <g id="Group" transform="translate(92.000000, 34.000000)">
                <g id="Group-15" transform="translate(52.000000, 0.000000)">
                    <circle id="Oval-Copy" fill-opacity="0.15" fill="#BAC8D3" cx="17.5" cy="17.5" r="17.5"></circle>
                    <g id="Group-2-Copy-2" transform="translate(7.000000, 7.875000)" fill="#A5B1BB" fill-rule="nonzero">
                        <g id="Group-2-Copy">
                            <g id="g8377">
                                <path d="M11.62875,0.791219549 L11.62875,2.30608544 L15.9020885,2.30608544 L20.8132387,7.21894667 L20.8132387,16.3692512 L0.0126041902,16.3692512 L0.0126041902,7.21894667 L4.92375439,2.30608544 L9.26246857,2.30608544 L9.26246857,0.791219549 L11.62875,0.791219549 Z M1.80708438,9.47756881 L1.81505702,14.3068069 L9.5341733,14.3068069 L9.54374047,9.47917695 L1.80708438,9.47756881 Z M11.2447005,9.4724362 L11.2447005,14.2904173 L19.0435432,14.2904173 L19.0435432,9.47404434 L11.2447005,9.4724362 Z M5.44865481,4.112526 L1.8003718,7.75817459 L9.06664176,7.75817459 L5.44865481,4.112526 Z M15.2384676,4.0182763 L7.61821213,4.0182763 L11.3207091,7.73629109 L19.0812832,7.73629109 L15.2384676,4.0182763 Z" id="Combined-Shape"></path>
                            </g>
                        </g>
                    </g>
                </g>
            </g>
        </g>
    </g>
</svg>