<svg width="104px" height="18px" viewBox="0 0 104 18" version="1.1" xmlns="http://www.w3.org/2000/svg" xmlns:xlink="http://www.w3.org/1999/xlink">
    <g id="Sidebar-Menu" stroke="none" stroke-width="1" fill="none" fill-rule="evenodd">
        <g id="Logotipo_Tottus" fill="#BAC8D3" fill-rule="nonzero">
            <path d="M6.24356775,8.92020563 C6.24356775,7.44196406 7.44233388,6.24356775 8.92102824,6.24356775 C10.3980769,6.24356775 11.5951973,7.44196406 11.5951973,8.92020563 C11.5951973,10.395155 10.3980769,11.5951973 8.92102824,11.5951973 C7.44233388,11.5951973 6.24356775,10.395155 6.24356775,8.92020563" id="path8713"></path>
            <path d="M0.89193825,3.1224029 C0.89193825,1.89144692 1.88801849,0.89365278 3.11897471,0.89365278 C4.3516444,0.89365278 5.3494381,1.89144692 5.3494381,3.1224029 C5.3494381,4.35507341 4.3516444,5.35115337 3.11897471,5.35115337 C1.88801849,5.35115337 0.89193825,4.35507341 0.89193825,3.1224029 M12.4858964,3.1224029 C12.4858964,1.89144692 13.4836901,0.89193825 14.7146464,0.89193825 C15.9456026,0.89193825 16.9468268,1.89144692 16.9468268,3.1224029 C16.9468268,4.35507341 15.9456026,5.35115337 14.7146464,5.35286755 C13.4836901,5.35286755 12.4858964,4.35507341 12.4858964,3.1224029 M12.4858964,14.716362 C12.4858964,13.4871206 13.4836901,12.4910407 14.7146464,12.4910407 C15.9507465,12.4910407 16.9468268,13.4871206 16.9468268,14.716362 C16.9468268,15.9456035 15.9507465,16.9468268 14.7146464,16.9468268 C13.4836901,16.9468268 12.4858964,15.9456035 12.4858964,14.716362 M0.89193825,14.716362 C0.89193825,13.4871206 1.88801849,12.4910407 3.11897471,12.4910407 C4.3516444,12.4910407 5.34772464,13.4871206 5.34772464,14.716362 C5.34772464,15.9456035 4.3516444,16.9468268 3.11897471,16.9468268 C1.88801849,16.9468268 0.89193825,15.9456035 0.89193825,14.716362" id="path5178"></path>
            <path d="M0,8.92014447 C0,7.55200855 1.10476327,6.44124491 2.47135551,6.44124491 C3.83457115,6.44124491 4.94271101,7.55200855 4.94271101,8.92014447 C4.94271101,10.2882804 3.83457115,11.397351 2.47135551,11.397351 C1.10476327,11.397351 0,10.2882804 0,8.92014447 L0,8.92014447 Z M12.850546,8.92014447 C12.850546,7.55200855 13.9586858,6.44124491 15.3252816,6.44124491 C16.6884972,6.44124491 17.7966371,7.55031521 17.7966371,8.92014447 C17.7966371,10.2882804 16.6884972,11.397351 15.3252816,11.397351 C13.9586858,11.397351 12.850546,10.2882804 12.850546,8.92014447 L12.850546,8.92014447 Z M6.42518735,15.3615586 C6.42518735,13.9934227 7.53163892,12.8826587 8.89823115,12.8826587 C10.2597585,12.8826587 11.3678984,13.9934227 11.3678984,15.3615586 C11.3678984,16.7296945 10.2597585,17.838765 8.89823115,17.838765 C7.53163892,17.838765 6.42518735,16.7296945 6.42518735,15.3615586 L6.42518735,15.3615586 Z M6.42518735,2.48059291 C6.42518735,1.11076364 7.53332722,0 8.89823115,0 C10.2597585,0 11.3678984,1.11076364 11.3678984,2.48059291 C11.3678984,3.84703549 10.2597585,4.95441279 8.89823115,4.95441279 C7.53332722,4.95441279 6.42518735,3.84703549 6.42518735,2.48059291 L6.42518735,2.48059291 Z M41.6694564,13.4138276 C39.5697319,13.4138276 37.8669804,11.7036579 37.8669804,9.59049717 C37.8669804,7.47564381 39.5697319,5.7620874 41.6694564,5.7620874 C43.7641125,5.7620874 45.4685524,7.47564381 45.4685524,9.59049717 C45.4685524,11.7019645 43.7641125,13.4138276 41.6694564,13.4138276 L41.6694564,13.4138276 Z M41.6694564,1.93875695 C37.4700109,1.93875695 34.0645043,5.36417644 34.0645043,9.59049717 C34.0645043,13.8117385 37.4700109,17.2405444 41.6694564,17.2405444 C45.8655253,17.2405444 49.2710285,13.8117385 49.2710285,9.59049717 C49.2710285,5.36417644 45.8655253,1.93875695 41.6694564,1.93875695 L41.6694564,1.93875695 Z M102.880362,9.81197291 C102.500283,9.16854271 101.883713,8.63517277 101.037402,8.20170408 C100.194474,7.76654204 98.7974718,7.33476634 96.8396445,6.911457 C96.0490822,6.74551995 95.5541358,6.57111654 95.3446685,6.37470072 C95.1250678,6.19013795 95.0186459,5.98186979 95.0186459,5.7482029 C95.0186459,5.42987449 95.1487179,5.16572918 95.4088621,4.94730166 C95.6757594,4.72210113 96.067664,4.60865419 96.5862605,4.60865419 C97.2180357,4.60865419 97.7062254,4.75765922 98.0626548,5.05397558 C98.4241525,5.35367863 98.6623349,5.82947843 98.7755135,6.48476132 L102.988472,6.24093507 C102.804347,4.72718081 102.224937,3.6316562 101.253626,2.94081522 C100.284003,2.24489456 98.8751788,1.89778108 97.0288418,1.89778108 C95.523729,1.89947337 94.3361939,2.0925032 93.4662364,2.47517477 C92.6064156,2.85446001 91.9594353,3.37428391 91.5219224,4.04480619 C91.0979263,4.70516876 90.8833905,5.40955543 90.8833905,6.15965989 C90.8833905,7.2992086 91.3023217,8.23048915 92.1452526,8.96874056 C92.9814267,9.70529899 94.3767374,10.291159 96.3396297,10.7364808 C97.5339215,11.0006257 98.3008371,11.2833964 98.6302398,11.5814061 C98.9545706,11.8760295 99.1218061,12.2129836 99.1218061,12.5922689 C99.1218061,12.9884865 98.9444373,13.342373 98.599833,13.6454625 C98.2552287,13.9366994 97.7653472,14.090784 97.1285071,14.090784 C96.2720629,14.090784 95.6132576,13.7978539 95.1537863,13.206914 C94.8699956,12.8462545 94.6858666,12.3162712 94.592958,11.6186576 L90.3394556,11.8844955 C90.4644593,13.357612 91.0016376,14.5699702 91.9476103,15.5198766 C92.8986514,16.4731693 94.5980264,16.9506623 97.0575568,16.9506623 C98.4596242,16.9506623 99.6184443,16.749167 100.542455,16.3444833 C101.461401,15.9347198 102.179328,15.3353137 102.691168,14.5496514 C103.208073,13.7589094 103.464837,12.9004379 103.464837,11.965771 C103.464837,11.1733358 103.268887,10.4520168 102.880362,9.81197291 L102.880362,9.81197291 Z M84.816999,11.0338129 C84.816999,11.8431805 84.5973983,12.467985 84.154817,12.9082267 C83.7223724,13.3467754 83.121004,13.5618166 82.3507118,13.5618166 C81.5736594,13.5618166 80.9655344,13.3416957 80.522953,12.8997607 C80.0905085,12.4527459 79.8742879,11.8245548 79.8742879,11.0338129 L79.8742879,2.14600939 L75.41301,2.14600939 L75.41301,10.8238514 C75.41301,11.5400907 75.5498353,12.3596177 75.8302494,13.2908986 C75.9991733,13.8649059 76.3133708,14.4202878 76.7745339,14.9655103 C77.2441419,15.5107328 77.7559817,15.9272692 78.3168101,16.2269722 C78.8742583,16.5182091 79.571912,16.7112382 80.3928845,16.8094459 C81.2307469,16.909347 82.0027274,16.9584508 82.7037611,16.9584508 C83.921703,16.9584508 84.963961,16.7975933 85.8322302,16.4741849 C86.4623171,16.2439046 87.0535487,15.8409141 87.6211337,15.2719863 C88.1920953,14.6979788 88.6093383,14.0257635 88.8711707,13.2671932 C89.1414481,12.4984634 89.2765886,11.6840161 89.2749125,10.8238514 L89.2749125,2.14600939 L84.816999,2.14600939 L84.816999,11.0338129 Z M62.3586418,5.7388967 L66.1425361,5.7388967 L66.1425361,16.7026096 L70.6139508,16.7026096 L70.6139508,5.7388967 L74.3944651,5.7388967 L74.3944651,2.14923315 L62.3586418,2.14923315 L62.3586418,5.7388967 L62.3586418,5.7388967 Z M49.2452881,5.7388967 L53.0258024,5.7388967 L53.0258024,16.7026096 L57.4938405,16.7026096 L57.4938405,5.7388967 L61.2760431,5.7388967 L61.2760431,2.14923315 L49.2452881,2.14923315 L49.2452881,5.7388967 Z M34.129037,2.14855623 L22.0982821,2.14855623 L22.0982821,5.73821978 L25.8804881,5.73821978 L25.8804881,16.7036257 L30.350211,16.7036257 L30.350211,5.73821978 L34.129037,5.73821978 L34.129037,2.14855623 Z" id="path5190"></path>
        </g>
    </g>
</svg>