<svg width="35px" height="35px" viewBox="0 0 35 35" version="1.1" xmlns="http://www.w3.org/2000/svg" xmlns:xlink="http://www.w3.org/1999/xlink">
    <g id="Ubicación" stroke="none" stroke-width="1" fill="none" fill-rule="evenodd">
        <g id="CCC---Mobile---Ubicacion---paso-4" transform="translate(-196.000000, -34.000000)">
            <g id="Group" transform="translate(92.000000, 34.000000)">
                <g id="Group-14" transform="translate(104.000000, 0.000000)">
                    <circle id="Oval-Copy-3" fill-opacity="0.15" fill="#BAC8D3" cx="17.5" cy="17.5" r="17.5"></circle>
                    <g id="Logotipo_Tottus" transform="translate(9.625000, 9.625000)" fill-rule="nonzero">
                        <path d="M5.46312178,7.80517993 C5.46312178,6.51171855 6.51204214,5.46312178 7.80589971,5.46312178 C9.09831726,5.46312178 10.1457976,6.51171855 10.1457976,7.80517993 C10.1457976,9.09576066 9.09831726,10.1457976 7.80589971,10.1457976 C6.51204214,10.1457976 5.46312178,9.09576066 5.46312178,7.80517993" id="path8713" fill="#96A1A9"></path>
                        <path d="M0.780445969,2.73210254 C0.780445969,1.65501606 1.65201618,0.781946183 2.72910287,0.781946183 C3.80768885,0.781946183 4.68075834,1.65501606 4.68075834,2.73210254 C4.68075834,3.81068923 3.80768885,4.6822592 2.72910287,4.6822592 C1.65201618,4.6822592 0.780445969,3.81068923 0.780445969,2.73210254 M10.9251594,2.73210254 C10.9251594,1.65501606 11.7982289,0.780445969 12.8753156,0.780445969 C13.9524023,0.780445969 14.8284734,1.65501606 14.8284734,2.73210254 C14.8284734,3.81068923 13.9524023,4.6822592 12.8753156,4.68375911 C11.7982289,4.68375911 10.9251594,3.81068923 10.9251594,2.73210254 M10.9251594,12.8768168 C10.9251594,11.8012306 11.7982289,10.9296606 12.8753156,10.9296606 C13.9569032,10.9296606 14.8284734,11.8012306 14.8284734,12.8768168 C14.8284734,13.9524031 13.9569032,14.8284734 12.8753156,14.8284734 C11.7982289,14.8284734 10.9251594,13.9524031 10.9251594,12.8768168 M0.780445969,12.8768168 C0.780445969,11.8012306 1.65201618,10.9296606 2.72910287,10.9296606 C3.80768885,10.9296606 4.67925906,11.8012306 4.67925906,12.8768168 C4.67925906,13.9524031 3.80768885,14.8284734 2.72910287,14.8284734 C1.65201618,14.8284734 0.780445969,13.9524031 0.780445969,12.8768168" id="path5178" fill="#A5B1BB"></path>
                        <path d="M0,7.80512641 C0,6.60800748 0.966667865,5.6360893 2.16243607,5.6360893 C3.35524975,5.6360893 4.32487213,6.60800748 4.32487213,7.80512641 C4.32487213,9.00224535 3.35524975,9.97268216 2.16243607,9.97268216 C0.966667865,9.97268216 0,9.00224535 0,7.80512641 L0,7.80512641 Z M11.2442277,7.80512641 C11.2442277,6.60800748 12.2138501,5.6360893 13.4096214,5.6360893 C14.6024351,5.6360893 15.5720574,6.6065258 15.5720574,7.80512641 C15.5720574,9.00224535 14.6024351,9.97268216 13.4096214,9.97268216 C12.2138501,9.97268216 11.2442277,9.00224535 11.2442277,7.80512641 L11.2442277,7.80512641 Z M5.62203893,13.4413638 C5.62203893,12.2442448 6.59018406,11.2723264 7.78595226,11.2723264 C8.97728869,11.2723264 9.94691107,12.2442448 9.94691107,13.4413638 C9.94691107,14.6384827 8.97728869,15.6089194 7.78595226,15.6089194 C6.59018406,15.6089194 5.62203893,14.6384827 5.62203893,13.4413638 L5.62203893,13.4413638 Z M5.62203893,2.17051879 C5.62203893,0.971918182 6.59166131,0 7.78595226,0 C8.97728869,0 9.94691107,0.971918182 9.94691107,2.17051879 C9.94691107,3.36615605 8.97728869,4.33511119 7.78595226,4.33511119 C6.59166131,4.33511119 5.62203893,3.36615605 5.62203893,2.17051879 L5.62203893,2.17051879 Z" id="path5190" fill="#A5B1BB"></path>
                    </g>
                </g>
            </g>
        </g>
    </g>
</svg>