<svg width="35px" height="35px" viewBox="0 0 35 35" version="1.1" xmlns="http://www.w3.org/2000/svg" xmlns:xlink="http://www.w3.org/1999/xlink">
    <g id="Ubicación" stroke="none" stroke-width="1" fill="none" fill-rule="evenodd">
        <g id="CCC---Mobile---Ubicacion---paso-4" transform="translate(-248.000000, -34.000000)">
            <g id="Group" transform="translate(92.000000, 34.000000)">
                <g id="Group-13" transform="translate(156.000000, 0.000000)">
                    <circle id="Oval-Copy-4" fill-opacity="0.15" fill="#BAC8D3" cx="17.5" cy="17.5" r="17.5"></circle>
                    <g id="Linio_logo_refresh" transform="translate(8.750000, 8.750000)">
                        <path d="M7.77714994,1.79866456 L4.56153889,2.96947009 L0.360439215,11.9797968 C0.104732916,12.5327063 0.343415565,13.1883355 0.894738379,13.447445 L4.43093126,15.0968005 L4.43093126,5.18773167 L7.77766698,1.79866456" id="path1980" fill="#A5B1BB"></path>
                        <path d="M12.0789154,0.580349378 C11.6466334,0.150708809 10.9485632,0.150708809 10.5162812,0.580349378 L5.77416852,5.32245615 L5.77416852,15.2651037 C5.77416852,15.8721931 6.2713009,16.3693176 6.8789054,16.3693176 L15.7157741,16.3693176 C16.3233786,16.3693176 16.820511,15.8721931 16.820511,15.2645769 L16.820511,5.32245615 L12.0789154,0.580349378 Z M11.2978568,2.70206979 C11.0457892,2.70917697 10.8097393,2.57885998 10.6814472,2.36176606 C10.5531552,2.14467215 10.5528538,1.87503914 10.6806603,1.65765899 C10.8084668,1.44027884 11.0442247,1.30943453 11.2963076,1.31597824 C11.6787966,1.31613068 11.9889042,1.62601544 11.9893315,2.00850424 C11.9897589,2.39099303 11.6803445,2.70156996 11.2978568,2.70257708 L11.2978568,2.70206979 Z" id="path1982" fill="#A5B1BB"></path>
                        <polyline id="path1984" fill="#FFFFFF" points="10.2411291 12.7123234 10.2411291 5.32091477 8.12973786 5.32091477 8.12973786 14.8242297 14.4649417 14.8242297 14.4649417 12.7128502 10.2416442 12.7128502"></polyline>
                    </g>
                </g>
            </g>
        </g>
    </g>
</svg>