<svg width="35px" height="35px" viewBox="0 0 35 35" version="1.1" xmlns="http://www.w3.org/2000/svg" xmlns:xlink="http://www.w3.org/1999/xlink">
    <g id="Page-1" stroke="none" stroke-width="1" fill="none" fill-rule="evenodd">
        <g id="header-falabella_mobile" fill-rule="nonzero">
            <circle id="Oval" fill-opacity="0.15" fill="#BAC8D3" cx="17.5" cy="17.5" r="17.5"></circle>
            <path d="M17.9214559,10.8663044 C18.2375479,9.44872874 18.532567,8.20041588 19.6072797,7.14252363 C20.3448276,6.4231569 21.3141762,6 22.3467433,6 C22.3467433,6 22.7471264,6 23,6.04231569 L22.9157088,6.57126182 C22.9157088,6.57126182 22.3678161,6.48663044 22.0306514,6.57126182 C21.5881226,6.67705104 21.335249,6.86747165 21.0191571,7.16368148 C20.4501916,7.73494329 20.2605364,8.39083648 19.9022988,9.93535917 L18.7643678,15.0555576 L21.6091954,15.0555576 L21.4406131,15.7326087 L18.5957854,15.7326087 L16.8045977,23.6879584 C16.4885057,25.1055341 16.1934866,26.3538469 15.118774,27.4117392 C14.381226,28.1311059 13.4118774,28.5542628 12.3582375,28.5542628 L12,28.5542628 L12.1896551,27.9618432 C12.2950191,27.9618432 12.4214559,27.9618432 12.5057471,27.9406853 C13.0747127,27.8560539 13.454023,27.6656333 13.7701149,27.2424764 C14.2969348,26.5654254 14.4233717,26.1422684 14.802682,24.6189036 L16.7835249,15.7537665 L14.0019157,15.7537665 L14.1704981,15.0767155 L16.9521073,15.0767155 L17.9214559,10.8663044 Z" id="Path" fill="#A5B1BB"></path>
        </g>
    </g>
</svg>