<svg width="122px" height="19px" viewBox="0 0 122 19" version="1.1" xmlns="http://www.w3.org/2000/svg" xmlns:xlink="http://www.w3.org/1999/xlink">
    <g id="Sidebar-Menu" stroke="none" stroke-width="1" fill="none" fill-rule="evenodd">
        <g id="Group-2-Copy-2" transform="translate(0.322470, -0.432247)" fill-rule="nonzero">
            <g id="Group-2-Copy">
                <g id="g5224" transform="translate(74.855377, 10.644141) scale(-1, 1) rotate(-180.000000) translate(-74.855377, -10.644141) translate(27.136681, 3.062666)" fill="#BAC8D3">
                    <g id="g5230" transform="translate(0.082331, 0.184441)">
                        <path d="M-4.54747351e-13,4.74863525 L3.52883316,4.99603679 C3.60558665,4.35752253 3.76640349,3.97914372 3.92173794,3.76084825 C4.19403009,3.38246943 4.42063564,3.1732696 4.97618472,3.06412187 C5.49701199,2.96406978 6.09459275,3.1041427 6.35043772,3.4061181 C6.81278614,3.9591333 6.49115246,4.8395917 5.74006471,5.17794968 C5.44218807,5.37259648 5.25395927,5.39806428 4.32012511,5.81282568 C2.72840389,6.52228596 2.19661184,6.95705777 1.50400295,7.63559286 C0.804084201,8.31230882 0.455038559,9.17457594 0.455038559,10.2242133 C0.455038559,10.9136632 0.632302576,11.5649113 0.992313002,12.1797769 C1.35049596,12.7910042 1.88777041,13.2748925 2.6059638,13.6259844 C3.32598465,13.9752572 4.39870607,14.2008292 5.65051897,14.2008292 C7.18741628,14.2008292 8.27475741,13.831546 9.08066908,13.1930317 C9.88658074,12.5526984 10.3672038,11.5358053 10.5225382,10.1405334 L7.58397598,9.53840172 C7.48894785,10.149629 7.29523666,10.5898582 6.99736001,10.868185 C6.69948336,11.1446926 6.28647648,11.2847655 5.76199428,11.2847655 C5.33071276,11.2847655 4.99080444,11.1465117 4.77150875,10.9427693 C4.55404052,10.7408459 4.41515325,10.1660012 4.78795592,9.69666594 C4.93780798,9.50201914 5.22837477,9.18730984 5.85336749,8.93808918 C7.37747254,8.33050011 7.34092326,8.2540967 8.04266947,7.85388833 C8.74624315,7.45367997 9.60332381,6.73512404 9.90668285,6.34401132 C10.2904503,5.84920826 10.6468058,5.02514285 10.6468058,4.29203389 C10.6468058,3.43158591 10.5481227,3.13688702 10.1223236,2.41105458 C9.69652447,1.68340301 9.24514084,1.20133384 8.47943339,0.826593285 C7.71372593,0.451852726 6.75065236,0.0789312954 5.58473027,0.0789312954 C3.53979795,0.0789312954 2.12534074,0.702892518 1.33770372,1.58153179 C0.550066692,2.46199019 0.104165453,3.39520333 -4.54747351e-13,4.74863525 L-4.54747351e-13,4.74863525 Z M71.7438043,5.2878255 L73.7923915,10.4759811 L75.8866654,5.2878255 L71.7438043,5.2878255 Z M76.1205808,13.8577418 L71.5117163,13.8577418 L65.5084968,0.330699103 L69.7427311,0.330699103 L70.6747378,2.92295783 L76.8168446,2.92295783 L77.8420519,0.379815584 L82.1238003,0.379815584 L76.1205808,13.8577418 L76.1205808,13.8577418 Z M37.2873946,5.00986217 C37.0077926,4.22217934 35.9149691,3.03610728 34.2903535,3.03610728 L31.8269319,3.03610728 L31.8269319,11.1257736 L33.6470861,11.1257736 C35.0067194,11.1257736 36.4833104,10.4417811 37.0315496,9.33938902 C37.3714579,8.60991832 37.8941127,6.95451099 37.2873946,5.00986217 L37.2873946,5.00986217 Z M40.522006,10.9384033 C39.2409537,12.7902766 36.4047294,13.8562861 34.1478113,13.8562861 L27.724275,13.8562861 L27.724275,0.23828699 L35.2168778,0.23828699 C39.0088658,0.23828699 40.4068758,2.50674076 40.9642524,3.54910164 C42.5705933,6.67800339 41.313298,9.71049132 40.522006,10.9384033 L40.522006,10.9384033 Z M18.8177633,3.48143004 C16.7856232,3.48143004 15.1409055,5.06771047 15.1409055,7.02509319 C15.1409055,8.98065679 16.7856232,10.5669372 18.8177633,10.5669372 C20.8480759,10.5669372 22.4927935,8.98065679 22.4927935,7.02509319 C22.4927935,5.06771047 20.8480759,3.48143004 18.8177633,3.48143004 L18.8177633,3.48143004 Z M18.8415203,14.0887708 C14.5360149,14.0887708 11.0455585,10.945316 11.0455585,7.06875229 C11.0455585,3.1958268 14.5360149,0.054191142 18.8415203,0.054191142 C23.1451982,0.054191142 26.6356546,3.1958268 26.6356546,7.06875229 C26.6356546,10.945316 23.1451982,14.0887708 18.8415203,14.0887708 L18.8415203,14.0887708 Z M94.1699557,4.68442 L94.1699557,1.16440553 C92.6348858,0.447668729 89.9101369,0.0929385882 88.6254296,0.0929385882 C87.0666027,0.0929385882 85.8860609,0.409467022 84.8974029,0.835143191 C83.9105723,1.26081936 82.9657733,1.89933361 82.2494074,2.96716229 C81.5330415,4.03317185 81.1712036,5.4011568 81.1712036,7.0674789 C81.1712036,9.28863532 81.9624955,10.8512671 83.2234458,12.0464348 C84.484396,13.2361451 86.3593741,13.9437862 88.6674613,13.9437862 C90.4729958,13.9437862 92.2401536,13.7636925 94.100512,12.8377559 L94.100512,9.41051696 C93.7514664,9.68884368 92.5087908,10.3546449 90.9024499,10.7002794 C89.9923728,10.9003835 87.1744231,11.0786582 85.8860609,9.01394685 C85.350614,8.16077538 84.8517163,6.57995235 86.0176384,4.72625997 C86.4050607,4.105937 88.1777009,3.29642463 89.0494013,3.29642463 C89.8991721,3.29642463 91.6334355,2.97080055 94.1699557,4.68442 L94.1699557,4.68442 Z M49.0072361,13.7140306 L52.7973967,13.7140306 L56.8836064,8.50222625 L60.9752985,13.7140306 L64.9281033,13.7140306 L64.9281033,0.277944364 L60.7468655,0.277944364 L60.7468655,8.11293266 L56.7794409,3.34681494 L53.0002452,8.11293266 L53.0002452,0.277944364 L49.0072361,0.277944364 L49.0072361,13.7140306 L49.0072361,13.7140306 Z M42.9443207,13.7478664 L47.0158321,13.7478664 L47.0158321,0.311780526 L42.9443207,0.311780526 L42.9443207,13.7478664 Z" id="path5232"></path>
                    </g>
                </g>
                <g id="g8377">
                    <g id="g5234" transform="translate(12.055571, 9.788333) scale(-1, 1) rotate(-180.000000) translate(-12.055571, -9.788333) translate(0.014405, 0.868951)" fill="#BAC8D3">
                        <polygon id="path5236" points="0 0 0 10.4574909 5.61274308 16.0721895 10.5712736 16.0721895 10.5712736 17.8034648 13.2755953 17.8034648 13.2755953 16.0721895 18.1594107 16.0721895 23.7721537 10.4574909 23.7721537 1.63235813e-15"></polygon>
                    </g>
                    <g id="g5242" transform="translate(15.396065, 6.679826) scale(-1, 1) rotate(-180.000000) translate(-15.396065, -6.679826) translate(8.706528, 4.449981)" fill="#FFFFFF">
                        <polygon id="path5244" points="0 4.31735621 4.23142514 0.0681964561 13.1006526 0.0681964561 8.70886338 4.31735621"></polygon>
                    </g>
                    <g id="g5246" transform="translate(6.813089, 13.228853) scale(-1, 1) rotate(-180.000000) translate(-6.813089, -13.228853) translate(1.907428, 10.107069)" fill="#FFFFFF">
                        <polygon id="path5248" points="0.166922519 0 8.98876969 0 8.9997036 5.51729135 0.157810923 5.51912922"></polygon>
                    </g>
                    <g id="g5250" transform="translate(17.310777, 13.217473) scale(-1, 1) rotate(-180.000000) translate(-17.310777, -13.217473) translate(12.851086, 10.095689)" fill="#FFFFFF">
                        <polygon id="path5252" points="0 5.5136156 0 0.00735148747 8.91296313 0.00735148747 8.91296313 5.51177773"></polygon>
                    </g>
                    <g id="g5254" transform="translate(6.517259, 6.636640) scale(-1, 1) rotate(-180.000000) translate(-6.517259, -6.636640) translate(2.057568, 4.406794)" fill="#FFFFFF">
                        <polygon id="path5256" points="0 0 8.30430852 0 4.16946629 4.16645552"></polygon>
                    </g>
                </g>
            </g>
        </g>
    </g>
</svg>