<svg width="54px" height="19px" viewBox="0 0 54 19" version="1.1" xmlns="http://www.w3.org/2000/svg" xmlns:xlink="http://www.w3.org/1999/xlink">
    <g id="Sidebar-Menu" stroke="none" stroke-width="1" fill="none" fill-rule="evenodd">
        <g id="Linio_logo_refresh">
            <path d="M8.88817136,2.05561664 L5.21318731,3.3936801 L0.411930532,13.6911964 C0.119694761,14.3230929 0.392474932,15.0723835 1.02255815,15.3685086 L5.06392144,17.2534863 L5.06392144,5.92883619 L8.88876226,2.05561664" id="path1980" fill="#BAC8D3"></path>
            <path d="M13.8044748,0.663256432 C13.3104382,0.172238639 12.5126436,0.172238639 12.018607,0.663256432 L6.59904974,6.08280703 L6.59904974,17.4458328 C6.59904974,18.1396492 7.16720103,18.7077916 7.86160617,18.7077916 L17.9608847,18.7077916 C18.6552899,18.7077916 19.2234412,18.1396492 19.2234412,17.4452307 L19.2234412,6.08280703 L13.8044748,0.663256432 Z M12.9118364,3.08807976 C12.623759,3.09620225 12.3539878,2.94726855 12.2073683,2.69916121 C12.0607488,2.45105388 12.0604044,2.14290187 12.2064689,1.89446742 C12.3525334,1.64603296 12.6219711,1.4964966 12.9100659,1.50397513 C13.3471962,1.50414935 13.7016048,1.85830337 13.7020932,2.29543342 C13.7025816,2.73256347 13.3489652,3.08750853 12.9118364,3.08865952 L12.9118364,3.08807976 Z" id="path1982" fill="#BAC8D3"></path>
            <polyline id="path1984" fill="#FFFFFF" points="11.7041475 14.5283696 11.7041475 6.08104545 9.29112899 6.08104545 9.29112899 16.9419768 16.5313619 16.9419768 16.5313619 14.5289717 11.7047362 14.5289717"></polyline>
            <path d="M47.7424844,5.78842281 C44.5766521,5.78842281 42.0102381,8.35481904 42.0102381,11.5212444 C42.0102381,14.6870901 44.5766521,17.2534863 47.7424844,17.2534863 C50.9083166,17.2534863 53.4747285,14.6870901 53.4747285,11.5212444 C53.4747285,8.35481904 50.9083166,5.78842281 47.7424844,5.78842281 L47.7424844,5.78842281 Z M47.7424844,14.9602461 C46.5030698,14.9763878 45.3508333,14.3244157 44.7264195,13.2536606 C44.1020057,12.1829055 44.1020057,10.8590036 44.7264195,9.78824847 C45.3508333,8.71749339 46.5030698,8.06552131 47.7424844,8.08166295 C49.6407449,8.08359626 51.1785646,9.62298294 51.1785646,11.5212444 C51.1785646,13.4195059 49.6407449,14.9588926 47.7424844,14.9608259 L47.7424844,14.9602461 Z M20.8246465,6.0615789 L23.237665,6.0615789 L23.237665,16.9231123 L20.8252374,16.9231123 L20.8246465,6.0615789 Z M38.2644564,6.0615789 L40.6774727,6.0615789 L40.6774727,16.9266355 L38.2644564,16.9266355 L38.2644564,6.0615789 Z M34.1623254,6.0615789 L34.1623254,12.5177178 L24.9220592,5.78842281 L24.9220592,16.9266355 L27.3356664,16.9266355 L27.3356664,10.5253508 L36.5759326,17.2540883 L36.5759326,6.06215866 L34.1623254,6.06215866 L34.1623254,6.0615789 Z" id="path1986" fill="#BAC8D3"></path>
        </g>
    </g>
</svg>