<svg id="icon_ubicacion" xmlns="http://www.w3.org/2000/svg" width="23.666" height="25" viewBox="0 0 23.666 25">
  <g id="Grupo_100" data-name="Grupo 100" transform="translate(-1440.032 -741.915)">
    <path id="Trazado_105" data-name="Trazado 105" d="M1463.61,820.832l-2.164-3.23a.6.6,0,0,0-.076-.09l-1.444-2.156a.525.525,0,0,0-.069-.148l-2.164-3.23,0,0a6.16,6.16,0,0,1-.553,1.763l-5.254,10.522,0,.007,0,.006a3.212,3.212,0,0,1-1.284,1.341,3.317,3.317,0,0,1-1.659.444h-.084a3.311,3.311,0,0,1-1.719-.525,3.133,3.133,0,0,1-1.217-1.424l-3.17-7.154-1.879.737c-.669.263-1,.794-.745,1.18l1.64,2.448a.514.514,0,0,0,.069.148l2.164,3.23a.6.6,0,0,0,.077.091l1.968,2.937a1.493,1.493,0,0,0,1.688.226l4.682-1.836.906-.355,9.552-3.747C1463.534,821.75,1463.869,821.219,1463.61,820.832Z" transform="translate(0 -61.182)" fill="#009d83"/>
    <path id="Trazado_106" data-name="Trazado 106" d="M1463.538,762.513l5.254-10.522a6,6,0,0,0,.542-2.573,7.332,7.332,0,0,0-7.155-7.5l-.141,0h-.056a7.333,7.333,0,0,0-7.3,7.158,6.1,6.1,0,0,0,.421,2.6l4.763,10.751a1.885,1.885,0,0,0,.735.862,2.06,2.06,0,0,0,1.07.328h.054a2.064,2.064,0,0,0,1.032-.278A1.962,1.962,0,0,0,1463.538,762.513Zm-1.476-10.028h-.029a4.247,4.247,0,0,1,.028-8.494h.029a4.247,4.247,0,0,1-.028,8.494Z" transform="translate(-12.789)" fill="#009d83"/>
  </g>
</svg>
