<svg id="icon_recepcion" xmlns="http://www.w3.org/2000/svg" width="24.033" height="25" viewBox="0 0 24.033 25">
  <g id="Grupo_111" data-name="Grupo 111" transform="translate(-2352.027 -696.402)">
    <path id="Trazado_115" data-name="Trazado 115" d="M2431.435,816.7l-8.664.758a4.7,4.7,0,0,1,.124,1.3l8.654-.757a.652.652,0,0,0-.114-1.3Z" transform="translate(-59.21 -100.681)" fill="#68686c"/>
    <path id="Trazado_116" data-name="Trazado 116" d="M2416.132,732.888l-1.118-11.925a1.608,1.608,0,0,0-1.744-1.452l-1.042.093-10.8.945-1.509.132,1.068,12.2,0,.044a4.693,4.693,0,0,1,1.948,1.608l.07-.006,9.159-.8c.066-.006.133-.009.2-.009a2.268,2.268,0,0,1,2.242,1.857A2.729,2.729,0,0,0,2416.132,732.888Z" transform="translate(-40.083 -19.337)" fill="#68686c"/>
    <g id="Grupo_110" data-name="Grupo 110" transform="translate(2355.482 714.336)">
      <path id="Trazado_117" data-name="Trazado 117" d="M2380.272,809.62a3.533,3.533,0,1,1-3.826-3.21,3.53,3.53,0,0,1,3.826,3.21" transform="translate(-2373.22 -806.396)" fill="#68686c"/>
    </g>
    <path id="Trazado_118" data-name="Trazado 118" d="M2356.738,699.619l1.2,13.7a4.67,4.67,0,0,1,1.3-.12l-1.2-13.695a3.4,3.4,0,0,0-3.684-3.091l-1.732.152a.652.652,0,1,0,.114,1.3l1.732-.151A2.1,2.1,0,0,1,2356.738,699.619Z" fill="#68686c"/>
  </g>
</svg>
