<svg xmlns="http://www.w3.org/2000/svg" width="28.954" height="25" viewBox="0 0 28.954 25">
    <path fill="#68686c" fill-rule="evenodd" d="M822.832 407.921a1.716 1.716 0 0 0-.084-.5 1.83 1.83 0 0 0-1.221-1.222 13.563 13.563 0 0 0-26.523.083 1.806 1.806 0 0 0-1.105 1.688c-.022 1.093-.015 2.186 0 3.278a1.782 1.782 0 0 0 1.6 1.778 2.161 2.161 0 0 0 .512 0 1.418 1.418 0 0 0 .463-.122 1.736 1.736 0 0 0 1.131-1.646v-1.04a12.961 12.961 0 0 0 8.585 3.722.839.839 0 0 1-.034 1.677h-.035a14.629 14.629 0 0 1-8.361-3.042 11.046 11.046 0 0 0 21.427-.9 1.767 1.767 0 0 0 1.539 1.352 2.16 2.16 0 0 0 .512 0 1.423 1.423 0 0 0 .464-.122 1.735 1.735 0 0 0 1.131-1.646q.013-1.672-.001-3.338zm-3.617-.5a11.045 11.045 0 0 0-21.7-.016 1.789 1.789 0 0 0-.926-1.087 12.01 12.01 0 0 1 23.4.09 1.741 1.741 0 0 0-.773 1.013z" transform="translate(-793.885 -395.516)"/>
</svg>
