<svg id="icon_home" xmlns="http://www.w3.org/2000/svg" width="27.859" height="25" viewBox="0 0 27.859 25">
  <path id="Trazado_104" data-name="Trazado 104" d="M485.02,1037.763l-11.229-13.095a2.969,2.969,0,0,0-4.34,0l-11.229,13.095a2.158,2.158,0,0,0,.9,3.426c0,.006,0,.012,0,.019v4.844a2.674,2.674,0,0,0,2.674,2.674h6.362v-9.637a1.76,1.76,0,0,1,1.76-1.76h3.407a1.76,1.76,0,0,1,1.76,1.76v9.637h6.362a2.674,2.674,0,0,0,2.674-2.674v-4.844c0-.007,0-.012,0-.019A2.158,2.158,0,0,0,485.02,1037.763Z" transform="translate(-457.691 -1023.726)" fill="#009d83"/>
</svg>
