<svg id="icon_settings" xmlns="http://www.w3.org/2000/svg" width="28.694" height="25" viewBox="0 0 28.694 25">
  <g id="Grupo_72" data-name="Grupo 72" transform="translate(-1139.929 -401.93)">
    <g id="Grupo_68" data-name="Grupo 68" transform="translate(1139.929 404.45)">
      <path id="Trazado_82" data-name="Trazado 82" d="M1141.13,414.491h26.293a1.2,1.2,0,1,0,0-2.4H1141.13a1.2,1.2,0,1,0,0,2.4Z" transform="translate(-1139.929 -412.09)" fill="#009d83"/>
      <path id="Trazado_83" data-name="Trazado 83" d="M1167.422,447.486H1141.13a1.2,1.2,0,1,0,0,2.4h26.293a1.2,1.2,0,1,0,0-2.4Z" transform="translate(-1139.929 -438.706)" fill="#009d83"/>
      <path id="Trazado_84" data-name="Trazado 84" d="M1167.422,482.88H1141.13a1.2,1.2,0,1,0,0,2.4h26.293a1.2,1.2,0,1,0,0-2.4Z" transform="translate(-1139.929 -465.321)" fill="#009d83"/>
    </g>
    <g id="Grupo_69" data-name="Grupo 69" transform="translate(1144.063 401.93)">
      <circle id="Elipse_5" data-name="Elipse 5" cx="2.976" cy="2.976" r="2.976" transform="translate(0.744 0.744)" fill="#fff"/>
      <path id="Trazado_85" data-name="Trazado 85" d="M1160.318,409.371a3.721,3.721,0,1,1,3.721-3.721A3.725,3.725,0,0,1,1160.318,409.371Zm0-5.953a2.232,2.232,0,1,0,2.232,2.232A2.235,2.235,0,0,0,1160.318,403.418Z" transform="translate(-1156.597 -401.93)" fill="#009d83"/>
    </g>
    <g id="Grupo_70" data-name="Grupo 70" transform="translate(1156.348 410.709)">
      <circle id="Elipse_6" data-name="Elipse 6" cx="2.976" cy="2.976" r="2.976" transform="translate(0.744 0.744)" fill="#fff"/>
      <path id="Trazado_86" data-name="Trazado 86" d="M1209.846,444.766a3.721,3.721,0,1,1,3.721-3.721A3.725,3.725,0,0,1,1209.846,444.766Zm0-5.953a2.232,2.232,0,1,0,2.232,2.232A2.235,2.235,0,0,0,1209.846,438.813Z" transform="translate(-1206.125 -437.325)" fill="#009d83"/>
    </g>
    <g id="Grupo_71" data-name="Grupo 71" transform="translate(1149.024 419.489)">
      <circle id="Elipse_7" data-name="Elipse 7" cx="2.976" cy="2.976" r="2.976" transform="translate(0.744 0.744)" fill="#fff"/>
      <path id="Trazado_87" data-name="Trazado 87" d="M1180.318,480.161a3.721,3.721,0,1,1,3.721-3.721A3.725,3.725,0,0,1,1180.318,480.161Zm0-5.953a2.232,2.232,0,1,0,2.232,2.232A2.235,2.235,0,0,0,1180.318,474.208Z" transform="translate(-1176.597 -472.72)" fill="#009d83"/>
    </g>
  </g>
</svg>
