<svg xmlns="http://www.w3.org/2000/svg" width="80.337" height="20" viewBox="0 0 80.337 20">
    <path fill="#e7004c" d="M1725.162 1460.688a3.637 3.637 0 0 0-1.338-.988 4.126 4.126 0 0 0-1.639-.324 3.488 3.488 0 0 0-1.039.151 3.569 3.569 0 0 0-.845.4 2.753 2.753 0 0 0-.639.56 3.744 3.744 0 0 0-.449.641c-.016-.094-.033-.218-.051-.357-.007-.043-.015-.083-.024-.125-.423-1.274-2.616-.584-2.616-.584v7.715c-.19.041-.612.135-.725.146a2.944 2.944 0 0 1-.357.02 1.889 1.889 0 0 1-.614-.084.764.764 0 0 1-.4-.292 1.512 1.512 0 0 1-.227-.6 5.528 5.528 0 0 1-.071-1.018v-9.424a1.426 1.426 0 0 0-1.426-1.379 8.8 8.8 0 0 0-1.445.118v11.316a5.875 5.875 0 0 0 .116 1.2c-.2.042-.6.132-.7.141a2.873 2.873 0 0 1-.356.021 1.882 1.882 0 0 1-.614-.084.74.74 0 0 1-.4-.292 1.434 1.434 0 0 1-.225-.6 5.781 5.781 0 0 1-.073-1.018v-9.424a1.429 1.429 0 0 0-1.428-1.38h-.007a8.756 8.756 0 0 0-1.44.119v11.316a3.66 3.66 0 0 0 .949 2.819 3.575 3.575 0 0 0 2.517.865c.259 0 .539-.015.845-.043.287-.026 1.947-.314 2.345-.406a3.939 3.939 0 0 0 1.932.449c.258 0 .541-.015.845-.043.125-.009.518-.073.953-.147v4.889c.26.042.506.069.742.083s.472.018.7.018h.042a1.437 1.437 0 0 0 1.417-1.264v-3.519c.145.027.334.054.56.074s.449.028.68.028a6.831 6.831 0 0 0 2.406-.4 4.947 4.947 0 0 0 1.79-1.129 4.839 4.839 0 0 0 1.122-1.783 6.765 6.765 0 0 0 .388-2.367 7.853 7.853 0 0 0-.315-2.362 4.74 4.74 0 0 0-.887-1.658m-2.547 6.563a2.379 2.379 0 0 1-1.937.813 4.325 4.325 0 0 1-1.261-.163v-3.584a4.162 4.162 0 0 1 .1-.956 2.216 2.216 0 0 1 .326-.783 1.6 1.6 0 0 1 .58-.528 1.778 1.778 0 0 1 .866-.193 1.807 1.807 0 0 1 .928.223 1.844 1.844 0 0 1 .62.611 2.553 2.553 0 0 1 .344.923 6.091 6.091 0 0 1 .1 1.173 3.8 3.8 0 0 1-.673 2.463m17.81-6.935a4.945 4.945 0 0 0-3.313-1.022 10.661 10.661 0 0 0-1.673.146c-.255.04-.509.093-.766.153-.063.014-.126.03-.185.045-.278.071-.56.155-.839.248a3.985 3.985 0 0 0 .1.956c.015.053.025.11.038.163a1.15 1.15 0 0 1 .046.134 1.111 1.111 0 0 0 1.005.648h.009a.692.692 0 0 0 .167-.016c.056-.012.112-.026.169-.041a6.652 6.652 0 0 1 1.375-.155 6.221 6.221 0 0 1 .933.061 1.9 1.9 0 0 1 .7.236 1.189 1.189 0 0 1 .447.476 1.678 1.678 0 0 1 .161.794v.246c-.475-.042-.908-.062-1.3-.062a8.009 8.009 0 0 0-1.634.172 4.671 4.671 0 0 0-1.476.571 3.23 3.23 0 0 0-1.084 1.058 3.049 3.049 0 0 0-.414 1.639 4.357 4.357 0 0 0 .088.919v-.008c-.125.03-.948.155-1.074.167s-.251.019-.358.019a2.1 2.1 0 0 1-.614-.078.785.785 0 0 1-.393-.3 1.459 1.459 0 0 1-.225-.6 5.69 5.69 0 0 1-.073-1.019v-9.422a1.431 1.431 0 0 0-1.432-1.381h-.007a9.11 9.11 0 0 0-1.437.119v11.324a3.664 3.664 0 0 0 .95 2.822 3.591 3.591 0 0 0 2.518.864c.255 0 .543-.013.846-.04.25-.023 1.99-.335 2.74-.486a4.271 4.271 0 0 0 1.247.466 9.214 9.214 0 0 0 1.909.183 17.28 17.28 0 0 0 2.909-.336 1.391 1.391 0 0 0 1.126-1.4v-5a4.053 4.053 0 0 0-1.19-3.252m-1.625 7.611c-.149.026-.323.057-.525.089a3.445 3.445 0 0 1-.612.049 6.1 6.1 0 0 1-.626-.031 2.151 2.151 0 0 1-.668-.156 1.337 1.337 0 0 1-.542-.42 1.292 1.292 0 0 1-.224-.813 1.245 1.245 0 0 1 .58-1.151 2.988 2.988 0 0 1 1.58-.358c.149 0 .323.016.512.034s.364.045.525.071zm20.143-7.611a4.935 4.935 0 0 0-3.313-1.021 10.585 10.585 0 0 0-1.67.145c-.254.04-.511.093-.769.153l-.186.045c-.277.071-.557.155-.837.248a4.175 4.175 0 0 0 .1.955c.014.054.027.11.045.163a.983.983 0 0 0 .045.134 1.1 1.1 0 0 0 1 .649h.012a.594.594 0 0 0 .161-.016c.063-.012.116-.025.177-.041a6.658 6.658 0 0 1 1.378-.155 6.124 6.124 0 0 1 .928.061 1.907 1.907 0 0 1 .7.236 1.242 1.242 0 0 1 .448.476 1.694 1.694 0 0 1 .159.794v.247c-.473-.042-.908-.062-1.3-.062a7.962 7.962 0 0 0-1.631.172 4.722 4.722 0 0 0-1.479.571 3.235 3.235 0 0 0-1.078 1.058 3.005 3.005 0 0 0-.423 1.639 3.645 3.645 0 0 0 .34 1.647 2.831 2.831 0 0 0 .958 1.095 4.063 4.063 0 0 0 1.489.615 9.2 9.2 0 0 0 1.9.183 17.125 17.125 0 0 0 2.907-.336 1.389 1.389 0 0 0 1.13-1.4v-5a4.035 4.035 0 0 0-1.195-3.252m-1.622 7.611c-.15.026-.322.057-.528.089a3.457 3.457 0 0 1-.614.049 6.1 6.1 0 0 1-.622-.031 2.211 2.211 0 0 1-.67-.156 1.375 1.375 0 0 1-.541-.42 1.312 1.312 0 0 1-.223-.813 1.247 1.247 0 0 1 .583-1.151 2.972 2.972 0 0 1 1.579-.358c.148 0 .318.016.509.033s.369.045.528.071zm-53.675-7.535a4.964 4.964 0 0 0-3.312-1.016 11.337 11.337 0 0 0-1.673.14c-.254.042-.511.091-.768.156-.063.016-.125.028-.187.047-.28.07-.56.153-.84.246a4.391 4.391 0 0 0 .1.954c.017.055.031.112.044.164s.031.088.046.133a1.107 1.107 0 0 0 1.006.647h.01a.816.816 0 0 0 .161-.016l.171-.038a6.7 6.7 0 0 1 1.38-.157 6.255 6.255 0 0 1 .925.062 1.81 1.81 0 0 1 .706.237 1.183 1.183 0 0 1 .447.477 1.658 1.658 0 0 1 .164.789v.248c-.478-.039-.91-.062-1.305-.062a7.786 7.786 0 0 0-1.631.174 4.73 4.73 0 0 0-1.479.569 3.225 3.225 0 0 0-1.078 1.06 3 3 0 0 0-.418 1.636 3.6 3.6 0 0 0 .336 1.646 2.825 2.825 0 0 0 .957 1.1 4.094 4.094 0 0 0 1.487.614 9.5 9.5 0 0 0 1.907.179 17.467 17.467 0 0 0 2.911-.333 1.393 1.393 0 0 0 1.129-1.4v-5a4.069 4.069 0 0 0-1.195-3.254m-1.621 7.608c-.153.03-.328.057-.531.1a3.573 3.573 0 0 1-.614.049c-.172 0-.382-.011-.619-.032a1.983 1.983 0 0 1-.672-.159 1.37 1.37 0 0 1-.544-.42 1.293 1.293 0 0 1-.219-.812 1.248 1.248 0 0 1 .581-1.152 3.017 3.017 0 0 1 1.579-.354c.152 0 .319.012.509.03s.367.045.531.071zm-7.788-7.608a4.682 4.682 0 0 1 .849 3.084v5.384a1.435 1.435 0 0 1-1.422 1.433h-.025a8.878 8.878 0 0 1-1.449-.124v-5.944a4.036 4.036 0 0 0-.277-1.687 1.094 1.094 0 0 0-1.106-.587 2.392 2.392 0 0 0-.687.1 1.506 1.506 0 0 0-.608.374 1.982 1.982 0 0 0-.449.778 3.949 3.949 0 0 0-.176 1.295v4.348a1.452 1.452 0 0 1-1.439 1.448h-.017a8.764 8.764 0 0 1-1.437-.124v-1.246-.078V1464.237a4.132 4.132 0 0 0-.273-1.687 1.1 1.1 0 0 0-1.112-.587 2.481 2.481 0 0 0-.693.1 1.387 1.387 0 0 0-.622.4 2.209 2.209 0 0 0-.44.827 4.912 4.912 0 0 0-.162 1.378v4.277a.461.461 0 0 0 0 .069c0 .027-.009.055-.012.081a.322.322 0 0 0-.009.061l-.022.07a.338.338 0 0 1-.017.07.524.524 0 0 1-.017.055.484.484 0 0 1-.03.074c-.006.015-.014.027-.021.043s-.023.057-.04.089c0 0-.007.005-.007.008a1.441 1.441 0 0 1-1.261.745 8.821 8.821 0 0 1-1.444-.124v-10.52a4.627 4.627 0 0 1 .572-.092 5.605 5.605 0 0 1 .631-.031 5.114 5.114 0 0 1 .61.031 4.6 4.6 0 0 1 .549.092 1.267 1.267 0 0 1 .113.295c.031.129.065.265.092.4s.054.284.07.42.038.25.052.344a3.129 3.129 0 0 1 .433-.61 3.072 3.072 0 0 1 .629-.549 3.464 3.464 0 0 1 .823-.4 3.246 3.246 0 0 1 1.03-.151q2.472 0 3.16 1.871a4.029 4.029 0 0 1 1.155-1.312 3.033 3.033 0 0 1 1.881-.559 3.277 3.277 0 0 1 2.64.985m57.192 9.669h-8.372s-1.164.073-.6-1.035l4.28-7.264h-2.083a1.916 1.916 0 0 1-1.953-2.215h7.318a.268.268 0 0 1 .084 0c.262.008 1.008.114.491 1.071h.012l-4.34 7.233h3.547c1.555 0 1.634 1.614 1.61 2.218m-.017.208a.07.07 0 0 1 0 .021s-.023-.012 0-.021" transform="translate(-1679.8 -1455.063)"/>
</svg>
