<svg xmlns="http://www.w3.org/2000/svg" width="29.267" height="40" viewBox="0 0 29.267 40">
    <path fill="#e7004c" d="M1872.9 1937.435l-.432-4.606h-.017l-1.683-18.516a1.246 1.246 0 0 0-1.243-1.135h-3.741v-2.5a7.445 7.445 0 0 0-4.548-6.884l-.037-.016c-.058-.024-.117-.046-.175-.069s-.127-.051-.192-.074l-.041-.014a7.429 7.429 0 0 0-2.121-.42q-.186-.01-.374-.01-.187 0-.374.01a7.427 7.427 0 0 0-2.121.42l-.041.014c-.064.023-.128.049-.192.074s-.117.045-.175.069l-.037.016a7.444 7.444 0 0 0-4.548 6.884v2.5h-3.741a1.246 1.246 0 0 0-1.243 1.135l-1.683 18.516h-.017l-.432 4.606a5.05 5.05 0 0 0 3.6 5.491l.028.007a8.019 8.019 0 0 0 1.126.258l5.444-.071h8.805l5.444.071a8.032 8.032 0 0 0 1.127-.258l.028-.007a5.05 5.05 0 0 0 3.6-5.491m-19.593-26.756a5 5 0 0 1 3.729-4.829l.019-.005c.055-.014.11-.026.165-.038l.084-.019.123-.022.123-.021.114-.015.132-.017c.053-.005.108-.008.162-.012l.086-.006q.126-.006.252-.006c.085 0 .169 0 .253.006l.086.006c.054 0 .109.007.162.012l.132.017.114.015.123.021.123.022.083.019c.055.012.11.024.165.038l.019.005a5 5 0 0 1 3.729 4.829v2.5h-9.979zm5.754 10.935l-.673.952a.694.694 0 0 1-1.133-.8l.673-.952a.694.694 0 0 1 1.134.8m-2.964-1.353v1.207a.694.694 0 0 1-1.388-.005v-1.207a.694.694 0 0 1 1.388.005m-4.422.949a.694.694 0 0 1 .981-.034l.9.837a.694.694 0 1 1-.947 1.014l-.9-.837a.694.694 0 0 1-.034-.981m-1.578 3.5a.694.694 0 0 1 .756-.625l1.207.114a.694.694 0 1 1-.131 1.382l-1.206-.114a.694.694 0 0 1-.626-.756m3.168 3.216l-.859.721a.694.694 0 0 1-.893-1.063l.859-.721a.694.694 0 0 1 .893 1.063m12.745.15a2.061 2.061 0 0 1-1.348 1.809l-.025.009-1.147.378 1.683 1.539.03.029a2.093 2.093 0 0 1-.843 3.445 2.1 2.1 0 0 1-2.162-.523l-1.606-1.534-.209 1.262a.749.749 0 0 1-.023.1 1.875 1.875 0 0 1-1.2 1.166h-.011a2.084 2.084 0 0 1-1.571-.14 2.154 2.154 0 0 1-1.075-1.254l-2.81-8.534a2.082 2.082 0 0 1 2.734-2.59l5.407 1.8a.694.694 0 1 1-.439 1.316l-5.425-1.81-.04-.014a.694.694 0 0 0-.919.861l2.809 8.534a.755.755 0 0 0 .9.507.54.54 0 0 0 .3-.237l.413-2.49a.694.694 0 0 1 .465-.544.693.693 0 0 1 .7.157l2.565 2.448.021.021a.711.711 0 0 0 .994.027.709.709 0 0 0 .037-1l-2.54-2.323a.694.694 0 0 1 .252-1.171l2.26-.744a.687.687 0 0 0 .437-.6.7.7 0 0 0-.364-.674.694.694 0 0 1 .661-1.22 2.072 2.072 0 0 1 1.087 1.992" transform="translate(-1843.661 -1903.192)"/>
</svg>
