<svg xmlns="http://www.w3.org/2000/svg" width="346.746" height="100.016" viewBox="0 0 346.746 100.016">
    <defs>
        <style>
            .cls-2{fill:#dd003b}
        </style>
    </defs>
    <g id="logo_full" opacity="0.3">
        <g id="Grupo_47" transform="translate(-138.691 -70.41)">
            <g id="Grupo_43" transform="translate(140.187 106.934)">
                <path id="Trazado_46" d="M145.775 289.591v-40h7.47l14.4 20.571 14.345-20.571h7.525v40H179.5v-19.217l-10.014 14.02H165.7l-10.015-14.02v19.217z" class="cls-2" transform="translate(-145.775 -248.288)"/>
                <path id="Trazado_47" d="M400.521 294.709h8.986v29.881h-8.986v-2.6a12.628 12.628 0 0 1-8.823 3.356 13.533 13.533 0 0 1-10.5-4.547 16.048 16.048 0 0 1-4.114-11.26 15.6 15.6 0 0 1 4.116-11.149 13.7 13.7 0 0 1 10.5-4.439 12.255 12.255 0 0 1 8.823 3.465zm-2.111 10.014a6.7 6.7 0 0 0-4.926-2.057 6.534 6.534 0 0 0-4.926 2.057 6.786 6.786 0 0 0-1.949 4.872 6.948 6.948 0 0 0 1.949 4.98 6.927 6.927 0 0 0 9.852 0 6.777 6.777 0 0 0 2-4.98 6.62 6.62 0 0 0-2-4.872z" class="cls-2" transform="translate(-328.255 -283.287)"/>
                <path id="Trazado_48" d="M568.935 284.735h-9.527v-41.3h9.527z" class="cls-2" transform="translate(-472.093 -243.431)"/>
                <path id="Trazado_49" d="M642.529 284.735H633v-41.3h9.527z" class="cls-2" transform="translate(-530.152 -243.431)"/>
                <path id="Trazado_50" d="M735.124 292.319a15.739 15.739 0 0 1 4.114 11.1 16.236 16.236 0 0 1-4.168 11.206 13.465 13.465 0 0 1-10.393 4.547 12.082 12.082 0 0 1-8.5-3.248v11.907H706.6v-41.71h9.419v5.172a11.719 11.719 0 0 1 8.607-3.519 13.532 13.532 0 0 1 10.498 4.545zm-12.342 4.331a6.661 6.661 0 0 0-6.767 6.875 6.967 6.967 0 0 0 1.895 4.872 6.451 6.451 0 0 0 4.872 2 6.255 6.255 0 0 0 4.818-2 6.969 6.969 0 0 0 1.895-4.872 6.617 6.617 0 0 0-6.713-6.876z" class="cls-2" transform="translate(-588.21 -277.107)"/>
                <path id="Trazado_51" d="M892.81 284.735h-9.527v-41.3h9.527z" class="cls-2" transform="translate(-727.6 -243.431)"/>
                <path id="Trazado_52" d="M973.9 294.709h8.986v29.881H973.9v-2.6a12.629 12.629 0 0 1-8.823 3.356 13.533 13.533 0 0 1-10.5-4.547 16.05 16.05 0 0 1-4.114-11.26 15.6 15.6 0 0 1 4.114-11.151 13.7 13.7 0 0 1 10.5-4.439 12.256 12.256 0 0 1 8.823 3.465zm-2.111 10.014a6.7 6.7 0 0 0-4.926-2.057 6.534 6.534 0 0 0-4.926 2.057 6.786 6.786 0 0 0-1.949 4.872 6.948 6.948 0 0 0 1.949 4.98 6.927 6.927 0 0 0 9.852 0 6.776 6.776 0 0 0 2-4.98 6.62 6.62 0 0 0-1.996-4.872z" class="cls-2" transform="translate(-780.6 -283.287)"/>
                <path id="Trazado_53" d="M1140.357 319.776h13.533v7.849h-26.742v-6.713l13.371-15.265h-12.776V297.8h25.551v6.82z" class="cls-2" transform="translate(-919.987 -286.321)"/>
                <path id="Trazado_54" d="M1291.886 294.709h8.986v29.881h-8.986v-2.6a12.629 12.629 0 0 1-8.824 3.356 13.533 13.533 0 0 1-10.5-4.547 16.048 16.048 0 0 1-4.114-11.26 15.6 15.6 0 0 1 4.114-11.151 13.7 13.7 0 0 1 10.5-4.439 12.256 12.256 0 0 1 8.824 3.465zm-2.111 10.014a6.7 6.7 0 0 0-4.926-2.057 6.534 6.534 0 0 0-4.926 2.057 6.787 6.787 0 0 0-1.949 4.872 6.948 6.948 0 0 0 1.949 4.98 6.927 6.927 0 0 0 9.852 0 6.776 6.776 0 0 0 2-4.98 6.62 6.62 0 0 0-2.001-4.872z" class="cls-2" transform="translate(-1031.458 -283.287)"/>
            </g>
            <text id="Compra_online_y_retira_en_Mallplaza_" fill="#dd003b" font-family="Axiforma-Black, Axiforma" font-size="13px" font-weight="800" transform="translate(138.691 166.426)">
                <tspan x="0" y="0">Compra online y retira en Mallplaza!</tspan>
            </text>
            <path id="Trazado_55" d="M150.26 107.008a14.8 14.8 0 0 1-4.434-11.108 15.224 15.224 0 0 1 15.5-15.663 16.144 16.144 0 0 1 12.9 5.94l-4.841 5.085c-2.319-2.482-4.841-3.743-7.567-3.743A7.852 7.852 0 0 0 156 89.881a8.224 8.224 0 0 0-2.319 5.98A8.071 8.071 0 0 0 156 101.72a7.949 7.949 0 0 0 5.777 2.319 9.86 9.86 0 0 0 7.73-3.865l5.045 4.841a15.856 15.856 0 0 1-5.573 4.516 16.7 16.7 0 0 1-7.689 1.75 15.289 15.289 0 0 1-11.03-4.273z" class="cls-2" transform="translate(-5.629 -7.754)"/>
            <path id="Trazado_56" d="M302.546 109.159h-7.16V78.118h7.16z" class="cls-2" transform="translate(-123.617 -6.081)"/>
            <path id="Trazado_57" d="M348.77 74.478a4.129 4.129 0 1 1 4.15 4.15 4.048 4.048 0 0 1-4.15-4.15zm7.77 28.6h-7.2V80.621h7.2z" class="cls-2" transform="translate(-165.732)"/>
            <path id="Trazado_58" d="M404.68 136.306a11.435 11.435 0 0 1-3.3-8.462 11.308 11.308 0 0 1 3.336-8.462 11.875 11.875 0 0 1 8.706-3.3c4.678 0 8.787 2.278 10.7 6.55l-5.736 3.01a5.329 5.329 0 0 0-4.8-2.888 5 5 0 0 0-3.7 1.464 5.071 5.071 0 0 0-1.424 3.621 4.973 4.973 0 0 0 5.045 5.167 5.268 5.268 0 0 0 4.8-2.889l5.736 3.418a12.7 12.7 0 0 1-19.365 2.767z" class="cls-2" transform="translate(-207.241 -36.034)"/>
            <path id="Trazado_59" d="M862.384 136a12.19 12.19 0 0 1 0-16.843 13 13 0 0 1 17.656 0 12.085 12.085 0 0 1 0 16.843 13.113 13.113 0 0 1-17.656 0zm12.449-4.76a5.126 5.126 0 0 0 1.465-3.7 5.069 5.069 0 0 0-5.085-5.085 4.735 4.735 0 0 0-3.58 1.505 4.85 4.85 0 0 0-1.464 3.58 5.128 5.128 0 0 0 1.464 3.7 4.849 4.849 0 0 0 3.58 1.465 4.939 4.939 0 0 0 3.619-1.463z" class="cls-2" transform="translate(-568.262 -35.73)"/>
            <path id="Trazado_60" d="M998.571 109.159h-7.16V78.118h7.16z" class="cls-2" transform="translate(-672.716 -6.081)"/>
            <path id="Trazado_61" d="M1053.885 109.159h-7.16V78.118h7.16z" class="cls-2" transform="translate(-716.354 -6.081)"/>
            <path id="Trazado_62" d="M1120.488 130.2h-16.029q1.22 3.539 5.492 3.54a11.938 11.938 0 0 0 6.794-2.075l2.807 4.841a16.539 16.539 0 0 1-9.927 3.092c-3.987 0-7.038-1.139-9.194-3.377a11.641 11.641 0 0 1-3.214-8.34 11.4 11.4 0 0 1 3.336-8.421 12.82 12.82 0 0 1 16.924-.366 10.692 10.692 0 0 1 3.255 8.218 18.1 18.1 0 0 1-.244 2.888zm-16.111-4.922h9.52a4.555 4.555 0 0 0-4.678-3.458 4.636 4.636 0 0 0-4.842 3.46z" class="cls-2" transform="translate(-756.187 -36.034)"/>
            <path id="Trazado_63" d="M1223.474 136.306a11.435 11.435 0 0 1-3.3-8.462 11.308 11.308 0 0 1 3.336-8.462 11.876 11.876 0 0 1 8.706-3.3c4.678 0 8.787 2.278 10.7 6.55l-5.736 3.01a5.328 5.328 0 0 0-4.8-2.888 5 5 0 0 0-3.7 1.464 5.071 5.071 0 0 0-1.424 3.621 4.973 4.973 0 0 0 5.045 5.167 5.269 5.269 0 0 0 4.8-2.889l5.736 3.418a12.7 12.7 0 0 1-19.365 2.767z" class="cls-2" transform="translate(-853.193 -36.034)"/>
            <path id="Trazado_64" d="M1353.965 110.18a13.892 13.892 0 0 1-7.16 1.831c-5.573 0-8.34-3.092-8.34-9.276v-7.811h-3.417v-5.94h3.5V81.01h7.119v7.974h7.038v5.94h-7.038v6.957c0 2.4.936 3.58 2.848 3.58a7.627 7.627 0 0 0 3.54-1.017z" class="cls-2" transform="translate(-943.814 -8.362)"/>
            <g id="Grupo_46" transform="translate(219.857 72.037)">
                <path id="Trazado_65" d="M638.339 107.537l-4.027 4.231-3.824-3.58a13.841 13.841 0 0 1-8.951 3.092 11.4 11.4 0 0 1-7.73-2.523 8.153 8.153 0 0 1-2.848-6.347c0-3.458 1.749-6.306 5.207-8.462a10.54 10.54 0 0 1-1.75-5.777 7.7 7.7 0 0 1 2.4-5.492 8.94 8.94 0 0 1 6.632-2.441 8.464 8.464 0 0 1 5.777 2.075 6.235 6.235 0 0 1 2.36 4.922c0 3.743-2.522 5.9-6.753 8.137l.936.9 4.434 3.987a3.81 3.81 0 0 0 .407-.407c.61-.651 1.587-1.831 2.929-3.58l4.272 3.621a48.637 48.637 0 0 1-3.336 4.191zm-12.367-3.5l-4.8-4.475-1.261-1.18a4.348 4.348 0 0 0-1.79 3.377 3.5 3.5 0 0 0 3.824 3.417 7.169 7.169 0 0 0 4.027-1.138zm-5.492-15.621a5.694 5.694 0 0 0 .813 2.807c2.6-1.261 3.865-2.2 3.865-3.539a1.988 1.988 0 0 0-2.116-2.034 2.534 2.534 0 0 0-2.562 2.766z" class="cls-2" transform="translate(-592.433 -79.791)"/>
                <g id="Grupo_45">
                    <path id="Trazado_66" d="M543.669 108.1l-.006-.005a9.472 9.472 0 0 1-3.291-6.975l-4.163-5.387 7.777-7.285a11.632 11.632 0 0 1-.16-1.747H537.1l-6.753 6.509V78.118h-7.161v31.041h7.161v-7.933l1.058-.977 6.631 8.91h7.077a10.557 10.557 0 0 1-1.442-1.053z" class="cls-2" transform="translate(-523.191 -78.118)"/>
                    <g id="Grupo_44" transform="translate(41.004 .448)">
                        <path id="Trazado_67" d="M741.054 100.174a9.86 9.86 0 0 1-7.73 3.865 7.949 7.949 0 0 1-5.777-2.319 8.07 8.07 0 0 1-2.319-5.858 8.222 8.222 0 0 1 2.319-5.98 7.852 7.852 0 0 1 5.818-2.36c2.726 0 5.248 1.261 7.567 3.743l4.841-5.085a16.143 16.143 0 0 0-12.9-5.94 15.065 15.065 0 0 0-11.025 4.434 14.806 14.806 0 0 0-4.416 9.731l.979.83 4.272 3.621.963.816-.745 1.019c-1.013 1.385-1.816 2.428-2.526 3.275l2.865 2.563 1.042.932-.86.9a15.475 15.475 0 0 0 9.411 2.918 16.7 16.7 0 0 0 7.689-1.75 15.856 15.856 0 0 0 5.573-4.516z" class="cls-2" transform="translate(-717.436 -80.239)"/>
                    </g>
                </g>
            </g>
            <path id="Trazado_68" d="M1522.119 160.779l-1.023-10.912-.04-.009-3.986-43.863a2.952 2.952 0 0 0-2.944-2.69h-8.862v-5.913a17.635 17.635 0 0 0-10.775-16.308l-.087-.039c-.137-.057-.276-.11-.414-.164s-.3-.12-.454-.175l-.1-.033a17.624 17.624 0 0 0-5.024-1q-.442-.022-.885-.023h-.006q-.443 0-.885.023a17.623 17.623 0 0 0-5.024 1l-.1.033c-.153.055-.3.116-.454.175s-.277.106-.414.164l-.088.039a17.635 17.635 0 0 0-10.775 16.308v5.908h-8.862a2.952 2.952 0 0 0-2.944 2.69l-3.986 43.863-.04.009-1.023 10.912s-1.439 9.879 8.533 13.007l.066.018a19.1 19.1 0 0 0 2.668.612l12.9-.169h20.86l12.9.169a19.1 19.1 0 0 0 2.669-.612l.066-.018c9.972-3.123 8.533-13.002 8.533-13.002zM1475.7 97.392a11.843 11.843 0 0 1 8.833-11.44l.046-.013c.129-.033.26-.061.391-.09.066-.015.131-.031.2-.045.1-.02.194-.035.292-.052s.194-.036.292-.051.18-.023.27-.034.208-.028.313-.039c.127-.013.256-.021.384-.029.068 0 .135-.012.2-.015q.3-.015.6-.015t.6.015c.068 0 .135.011.2.015.128.009.257.016.384.029.1.011.209.026.314.039s.18.021.27.034.195.034.292.051.2.033.292.052c.066.013.132.03.2.045.131.029.262.057.391.09l.046.013a11.843 11.843 0 0 1 8.833 11.44v5.908H1475.7zm13.631 25.9l-1.594 2.256a1.644 1.644 0 1 1-2.685-1.9l1.594-2.256a1.644 1.644 0 1 1 2.685 1.9zm-7.02-3.205l-.011 2.859a1.644 1.644 0 1 1-3.288-.012l.011-2.859a1.644 1.644 0 1 1 3.288.012zm-10.474 2.249a1.644 1.644 0 0 1 2.323-.08l2.124 1.983a1.644 1.644 0 1 1-2.244 2.4l-2.124-1.983a1.644 1.644 0 0 1-.077-2.317zm-3.738 8.285a1.644 1.644 0 0 1 1.792-1.482l2.858.271a1.644 1.644 0 1 1-.31 3.273l-2.858-.271a1.644 1.644 0 0 1-1.481-1.788zm7.506 7.618l-2.034 1.708a1.644 1.644 0 0 1-2.114-2.518l2.034-1.708a1.644 1.644 0 1 1 2.114 2.518zm30.193.355a4.881 4.881 0 0 1-3.2 4.285l-.058.02-2.718.895 3.986 3.646c.025.022.048.045.071.069a4.958 4.958 0 0 1-2 8.162 4.989 4.989 0 0 1-5.122-1.238l-3.806-3.634-.5 2.989a1.623 1.623 0 0 1-.054.227 4.442 4.442 0 0 1-2.844 2.764l-.026.008a4.935 4.935 0 0 1-3.722-.332 5.1 5.1 0 0 1-2.546-2.97l-6.656-20.218a4.932 4.932 0 0 1 6.478-6.137l12.808 4.274a1.644 1.644 0 1 1-1.041 3.119l-12.851-4.288q-.047-.016-.094-.035a1.644 1.644 0 0 0-2.176 2.039l6.656 20.218a1.789 1.789 0 0 0 2.137 1.2h.007a1.278 1.278 0 0 0 .707-.561l.98-5.9a1.643 1.643 0 0 1 1.1-1.29h.006a1.643 1.643 0 0 1 1.649.372l6.077 5.8.05.05a1.684 1.684 0 0 0 2.355.064 1.677 1.677 0 0 0 .089-2.363l-6.017-5.5a1.644 1.644 0 0 1 .6-2.775l5.354-1.762a1.628 1.628 0 0 0 1.035-1.426 1.655 1.655 0 0 0-.863-1.6 1.644 1.644 0 0 1 1.567-2.891 4.911 4.911 0 0 1 2.584 4.725z" class="cls-2" transform="translate(-1036.754 -7.294)"/>
        </g>
    </g>
</svg>
